<?xml version="1.0" encoding="UTF-8" standalone="no"?><!-- Generator: Gravit.io --><svg xmlns="http://www.w3.org/2000/svg" xmlns:xlink="http://www.w3.org/1999/xlink" style="isolation:isolate" viewBox="0 0 1080 1080" width="1080pt" height="1080pt"><defs><clipPath id="_clipPath_PuyZhxgiLhlGsnywJIwkI1bYxhl99PMv"><rect width="1080" height="1080"/></clipPath></defs><g clip-path="url(#_clipPath_PuyZhxgiLhlGsnywJIwkI1bYxhl99PMv)"><g><path d=" M 533.573 137.703 C 489.223 138.9 444.088 165.408 400.826 182.935 C 363.379 198.105 336.87 195.349 324.033 165.831 C 309.564 132.542 330.355 111.92 356.573 100.594 C 396.354 83.393 437.319 65.903 479.541 57.949 C 588.426 37.46 686.083 69.662 772.654 135.6 C 864.375 205.467 913.197 301.394 919.725 414.607 C 922.348 460.166 905.667 507.585 893.313 552.938 C 886.568 577.73 860.846 589.213 839.161 577.138 C 824.341 568.882 810.936 545.867 809.655 528.509 C 807.902 504.672 820.751 480.183 822.963 455.584 C 838.012 288.678 703.972 143.469 533.573 137.703 Z " fill="rgb(3,133,253)"/><path d=" M 541.682 920.26 C 612.202 826.122 677.088 739.55 741.89 652.918 C 745.613 647.95 748.297 642.196 752.007 637.228 C 767.951 615.917 789.793 611.01 811.43 623.75 C 835.086 637.663 835.581 661.983 822.176 682.75 C 795.837 723.509 767.903 763.375 738.409 801.922 C 686.915 869.226 634.104 935.563 581.112 1001.683 C 553.033 1036.713 525.944 1036.93 498.36 1002.758 C 454.518 948.424 411.764 893.244 368.116 838.765 C 350.166 816.379 343.856 794.126 369.095 773.891 C 395.845 752.423 417.433 764.366 436 787.755 C 469.023 829.385 502.252 870.858 541.682 920.26 Z " fill="rgb(0,218,145)"/><path d=" M 540.951 678.012 C 501.811 616.28 447.864 538.75 417.597 473.065 C 385.552 403.525 428.342 325.064 498.161 306.449 C 579.486 284.764 673.335 334.892 673.335 414.38 C 673.335 507.032 577.903 615.893 540.951 678.012 Z  M 651.118 236.413 C 567.628 190.698 462.635 200.163 391.584 259.815 C 325.174 315.563 296.901 418.006 324.824 497.072 C 358.826 593.301 426.372 667.604 487.342 745.944 C 488.841 747.866 490.292 749.546 491.73 751.214 C 495.429 756.412 499.079 761.658 502.633 766.916 C 527.28 803.506 551.491 803.264 576.573 765.792 C 597.279 734.836 617.853 703.746 638.414 672.633 C 644.458 664.848 693.824 589.953 700.641 577.684 C 714.711 554.004 750.152 497.253 759.339 451.936 C 776.636 366.767 729.228 279.18 651.118 236.413 Z " fill="rgb(3,133,253)"/><path d=" M 160.001 422.471 C 159.796 350.32 181.735 285.035 221.322 225.491 C 238.317 199.95 262.468 191.779 288.952 209.016 C 314.457 225.588 315.171 251.093 299.916 274.627 C 230.654 381.531 244.808 486.826 303.748 591.856 C 311.049 604.874 317.733 618.328 326.134 630.597 C 344.084 656.778 337.521 679.479 313.527 694.939 C 289.291 710.544 264.427 705.117 248.302 680.434 C 197.086 602.033 160.884 518.218 160.001 422.471 Z " fill="rgb(3,133,253)"/></g></g></svg>