<?xml version="1.0" encoding="utf-8"?>
<!-- Generator: Adobe Illustrator 27.6.1, SVG Export Plug-In . SVG Version: 6.00 Build 0)  -->
<svg version="1.1" id="Camada_1" xmlns="http://www.w3.org/2000/svg" xmlns:xlink="http://www.w3.org/1999/xlink" x="0px" y="0px"
	 viewBox="0 0 400 400" style="enable-background:new 0 0 400 400;" xml:space="preserve">
<style type="text/css">
	.st0{fill:#0084FF;}
	.st1{fill:#FFFFFF;}
</style>
<g>
	<path class="st0" d="M770.3,211.1H502c-23,0-41.7-18.7-41.7-41.7V-98.9c0-23,18.7-41.7,41.7-41.7h268.3c23,0,41.7,18.7,41.7,41.7
		v268.3C812,192.5,793.3,211.1,770.3,211.1z"/>
	<g>
		<path class="st1" d="M636.1-51.3c28.2,0,31.6,0.1,42.7,0.6c11.5,0.5,23.4,3.2,31.8,11.5c8.5,8.5,11,20.2,11.5,31.8
			c0.5,11.1,0.6,14.5,0.6,42.7s-0.1,31.6-0.6,42.7c-0.5,11.5-3.2,23.4-11.5,31.8c-8.5,8.5-20.2,11-31.8,11.5
			c-11.1,0.5-14.5,0.6-42.7,0.6s-31.6-0.1-42.7-0.6c-11.4-0.5-23.5-3.3-31.8-11.5c-8.4-8.4-11-20.3-11.5-31.8
			c-0.5-11.1-0.6-14.5-0.6-42.7s0.1-31.6,0.6-42.7c0.5-11.4,3.2-23.5,11.5-31.8c8.5-8.5,20.2-11,31.8-11.5
			C604.6-51.2,607.9-51.3,636.1-51.3 M636.1-70.4c-28.7,0-32.3,0.1-43.6,0.6c-16.3,0.7-32.5,5.3-44.4,17.1
			c-11.8,11.8-16.3,28-17.1,44.4c-0.5,11.3-0.6,14.9-0.6,43.6s0.1,32.3,0.6,43.6c0.7,16.3,5.3,32.6,17.1,44.4
			c11.8,11.8,28,16.3,44.4,17.1c11.3,0.5,14.9,0.6,43.6,0.6c28.7,0,32.3-0.1,43.6-0.6c16.3-0.7,32.6-5.3,44.4-17.1
			c11.9-11.9,16.3-28,17.1-44.4c0.5-11.3,0.6-14.9,0.6-43.6S741.6,3,741.1-8.3c-0.7-16.3-5.3-32.6-17.1-44.4
			C712.2-64.5,696-69,679.7-69.7C668.4-70.2,664.8-70.4,636.1-70.4z"/>
		<path class="st1" d="M636.1-19c-30,0-54.2,24.3-54.2,54.2s24.3,54.2,54.2,54.2s54.2-24.3,54.2-54.2S666.1-19,636.1-19z
			 M636.1,70.5c-19.4,0-35.2-15.8-35.2-35.2s15.8-35.2,35.2-35.2c19.4,0,35.2,15.8,35.2,35.2S655.6,70.5,636.1,70.5z"/>
		<circle class="st1" cx="692.5" cy="-21.1" r="12.7"/>
	</g>
</g>
<g>
	<path class="st0" d="M766.2,317.2H506.1c-22.3,0-40.4-18.1-40.4-40.4V16.7c0-22.3,18.1-40.4,40.4-40.4h260.1
		c22.3,0,40.4,18.1,40.4,40.4v260.1C806.6,299.1,788.5,317.2,766.2,317.2z"/>
	<path class="st1" d="M609,160.4h-24.8c-1.1-4.4-1.8-8.9-1.8-13.6c0-4.7,0.6-9.3,1.8-13.6H609c-0.4,4.4-0.6,9-0.6,13.6
		C608.4,151.4,608.6,155.9,609,160.4z M610.2,169.4h-22.6c6.3,13.5,18,23.9,32.3,28.5c-1.6-2.5-3-5.3-4.3-8.6
		C613.2,183.5,611.4,176.7,610.2,169.4z M619.3,169.4c1.1,6.1,2.6,11.7,4.6,16.5c3.6,8.8,8.1,14.1,12.3,14.1s8.7-5.3,12.3-14.1
		c1.9-4.8,3.5-10.4,4.6-16.5H619.3z M653,124.1c-1.1-6.1-2.6-11.7-4.6-16.5c-3.6-8.8-8.1-14.1-12.3-14.1c-4.1,0-8.7,5.3-12.3,14.1
		c-1.9,4.8-3.5,10.4-4.6,16.5H653z M615.5,104.2c1.3-3.2,2.7-6.1,4.3-8.6c-14.3,4.6-26,15-32.3,28.5h22.6
		C611.4,116.7,613.2,110,615.5,104.2L615.5,104.2z M617.4,146.7c0,4.7,0.2,9.2,0.7,13.6h36.2c0.4-4.4,0.7-9,0.7-13.6
		c0-4.7-0.2-9.2-0.7-13.6H618C617.6,137.5,617.4,142.1,617.4,146.7L617.4,146.7z M652.4,95.6c1.6,2.5,3,5.3,4.3,8.6
		c2.3,5.8,4.1,12.6,5.3,19.9h22.6C678.5,110.6,666.7,100.2,652.4,95.6z M656.7,189.3c-1.3,3.2-2.7,6.1-4.3,8.6
		c14.3-4.6,26-15,32.3-28.5h-22.6C660.9,176.7,659.1,183.5,656.7,189.3z M732.2,80.1v133.2c0,16.2-13.2,29.4-29.4,29.4H569.5
		c-16.2,0-29.4-13.2-29.4-29.4V80.1c0-16.2,13.2-29.4,29.4-29.4h133.2C719,50.7,732.2,63.9,732.2,80.1z M698.8,146.7
		c0-34.5-28.1-62.6-62.6-62.6c-34.5,0-62.6,28.1-62.6,62.6s28.1,62.6,62.6,62.6C670.7,209.4,698.8,181.3,698.8,146.7z M663.9,146.7
		c0,4.6-0.2,9.2-0.6,13.6H688c1.1-4.4,1.8-8.9,1.8-13.6c0-4.7-0.6-9.3-1.8-13.6h-24.8C663.7,137.5,663.9,142.1,663.9,146.7
		L663.9,146.7z"/>
</g>
<g>
	<path class="st0" d="M491.5,442h-34.9c-3,0-5.4-2.4-5.4-5.4v-34.9c0-3,2.4-5.4,5.4-5.4h34.9c3,0,5.4,2.4,5.4,5.4v34.9
		C496.9,439.5,494.5,442,491.5,442z"/>
	<g id="XMLID_184_">
		<path class="st1" d="M487.3,412.4c-0.3-1.2-1.3-2.1-2.4-2.5c-2.2-0.6-10.8-0.6-10.8-0.6s-8.6,0-10.8,0.6c-1.2,0.3-2.1,1.3-2.4,2.5
			c-0.6,2.2-0.6,6.7-0.6,6.7s0,4.5,0.6,6.7c0.3,1.2,1.3,2.1,2.4,2.5c2.2,0.6,10.8,0.6,10.8,0.6s8.6,0,10.8-0.6
			c1.2-0.3,2.1-1.3,2.4-2.5c0.6-2.2,0.6-6.7,0.6-6.7S487.9,414.6,487.3,412.4z M471.3,423.2V415l7.2,4.1L471.3,423.2z"/>
	</g>
</g>
<g>
	<path class="st0" d="M545,442h-34.9c-3,0-5.4-2.4-5.4-5.4v-34.9c0-3,2.4-5.4,5.4-5.4H545c3,0,5.4,2.4,5.4,5.4v34.9
		C550.4,439.5,548,442,545,442z"/>
	<g>
		<path id="Path_2525" class="st1" d="M540.4,429.5h0.2l-0.5-0.7l0,0c0.3,0,0.4-0.2,0.4-0.4c0,0,0,0,0,0c0-0.3-0.2-0.5-0.6-0.5h-0.6
			v1.6h0.2v-0.7h0.3L540.4,429.5z M539.9,428.6h-0.3v-0.5h0.3c0.2,0,0.4,0,0.4,0.3C540.4,428.6,540.2,428.6,539.9,428.6"/>
		<path id="Path_2520" class="st1" d="M534.2,426.8h-3.3v-5.1c0-1.2,0-2.8-1.7-2.8c-1.7,0-2,1.3-2,2.7v5.2H524v-10.5h3.1v1.4h0
			c0.6-1.1,1.8-1.7,3.1-1.7c3.3,0,3.9,2.2,3.9,5L534.2,426.8z M520.4,414.8c-1,0-1.9-0.8-1.9-1.9s0.8-1.9,1.9-1.9s1.9,0.8,1.9,1.9
			S521.4,414.8,520.4,414.8L520.4,414.8 M522,426.8h-3.3v-10.5h3.3V426.8z M535.8,408h-18.7c-0.9,0-1.6,0.7-1.6,1.6v18.8
			c0,0.9,0.7,1.6,1.6,1.6h18.7c0.9,0,1.6-0.7,1.6-1.6v-18.8C537.4,408.7,536.7,408,535.8,408"/>
		<path id="Path_2526" class="st1" d="M540,427.2c-0.8,0-1.5,0.7-1.5,1.5c0,0.8,0.7,1.5,1.5,1.5c0.8,0,1.5-0.7,1.5-1.5
			C541.5,427.8,540.8,427.2,540,427.2L540,427.2 M540,430c-0.7,0-1.4-0.6-1.4-1.3c0-0.7,0.6-1.3,1.3-1.3c0.7,0,1.3,0.6,1.3,1.3
			c0,0,0,0,0,0C541.3,429.4,540.7,430,540,430L540,430"/>
	</g>
</g>
<g>
	<path class="st0" d="M780.7,330.5h-256c-22,0-39.8-17.8-39.8-39.8v-256c0-22,17.8-39.8,39.8-39.8h256c22,0,39.8,17.8,39.8,39.8v256
		C820.5,312.7,802.7,330.5,780.7,330.5z"/>
	<g id="XMLID_00000035516203503827842580000012027445503197785249_">
		<path class="st1" d="M749.9,113.6c-2.3-8.8-9.2-15.7-17.9-18.1c-15.8-4.3-79.3-4.3-79.3-4.3s-63.4,0-79.3,4.3
			c-8.7,2.3-15.6,9.3-17.9,18.1c-4.2,15.9-4.2,49.1-4.2,49.1s0,33.2,4.2,49.1c2.3,8.8,9.2,15.7,17.9,18.1
			c15.8,4.3,79.3,4.3,79.3,4.3s63.4,0,79.3-4.3c8.7-2.3,15.6-9.3,17.9-18.1c4.2-15.9,4.2-49.1,4.2-49.1S754.2,129.5,749.9,113.6z
			 M632,192.9v-60.3l53,30.2L632,192.9z"/>
	</g>
</g>
<g>
	<path class="st0" d="M314.9,350.6H85.1c-19.7,0-35.7-16-35.7-35.7V85.1c0-19.7,16-35.7,35.7-35.7h229.8c19.7,0,35.7,16,35.7,35.7
		v229.8C350.6,334.6,334.6,350.6,314.9,350.6z"/>
	<g>
		<path id="Path_2525_00000138543578540785466850000014498599610651485886_" class="st1" d="M284.5,268.4h1.6l-3.1-4.7l0,0
			c1.9,0,2.9-1.2,2.9-2.7c0-0.1,0-0.1,0-0.2c0-2-1.2-3-3.7-3h-4v10.5h1.5v-4.6h1.9L284.5,268.4z M281.5,262.6h-1.8v-3.6h2.2
			c1.1,0,2.5,0.2,2.5,1.7C284.4,262.5,283.1,262.6,281.5,262.6"/>
		<path id="Path_2520_00000179618619407541294160000005267199797527582902_" class="st1" d="M243.8,250.5h-21.5v-33.6
			c0-8-0.1-18.3-11.2-18.3c-11.2,0-12.9,8.7-12.9,17.8v34.2h-21.5v-69.1h20.6v9.4h0.3c4.2-7.2,12-11.5,20.3-11.2
			c21.8,0,25.8,14.3,25.8,32.9L243.8,250.5z M152.6,171.9c-6.9,0-12.5-5.6-12.5-12.5c0-6.9,5.6-12.5,12.5-12.5
			c6.9,0,12.5,5.6,12.5,12.5C165,166.3,159.5,171.9,152.6,171.9L152.6,171.9 M163.3,250.5h-21.5v-69.1h21.5V250.5z M254.5,127.1H131
			c-5.8-0.1-10.6,4.6-10.7,10.4v123.9c0.1,5.8,4.9,10.5,10.7,10.4h123.4c5.8,0.1,10.6-4.6,10.7-10.4V137.5
			C265.1,131.7,260.3,127,254.5,127.1"/>
		<path id="Path_2526_00000180326499615952861290000007128927991375493028_" class="st1" d="M281.7,253.2c-5.5,0-9.8,4.5-9.8,10
			c0,5.5,4.5,9.8,10,9.8c5.5,0,9.8-4.5,9.8-10c0-5.4-4.4-9.7-9.8-9.8H281.7 M281.9,271.8c-4.8,0.1-9-3.7-9-8.5
			c-0.1-4.8,3.7-8.7,8.5-8.8s8.7,3.7,8.8,8.5c0,0,0,0.1,0,0.1C290.3,267.8,286.6,271.7,281.9,271.8h-0.2"/>
	</g>
</g>
</svg>
