<?xml version="1.0" encoding="utf-8"?>
<!-- Generator: Adobe Illustrator 27.6.1, SVG Export Plug-In . SVG Version: 6.00 Build 0)  -->
<svg version="1.1" id="Camada_1" xmlns="http://www.w3.org/2000/svg" xmlns:xlink="http://www.w3.org/1999/xlink" x="0px" y="0px"
	 viewBox="0 0 400 400" style="enable-background:new 0 0 400 400;" xml:space="preserve">
<style type="text/css">
	.st0{fill:#0084FF;}
	.st1{fill:#FFFFFF;}
</style>
<g>
	<path class="st0" d="M334.2,375.8H65.8c-23,0-41.7-18.7-41.7-41.7V65.8c0-23,18.7-41.7,41.7-41.7h268.3c23,0,41.7,18.7,41.7,41.7
		v268.3C375.8,357.2,357.2,375.8,334.2,375.8z"/>
	<g>
		<path class="st1" d="M200,113.4c28.2,0,31.6,0.1,42.7,0.6c11.5,0.5,23.4,3.2,31.8,11.5c8.5,8.5,11,20.2,11.5,31.8
			c0.5,11.1,0.6,14.5,0.6,42.7s-0.1,31.6-0.6,42.7c-0.5,11.5-3.2,23.4-11.5,31.8c-8.5,8.5-20.2,11-31.8,11.5
			c-11.1,0.5-14.5,0.6-42.7,0.6s-31.6-0.1-42.7-0.6c-11.4-0.5-23.5-3.3-31.8-11.5c-8.4-8.4-11-20.3-11.5-31.8
			c-0.5-11.1-0.6-14.5-0.6-42.7s0.1-31.6,0.6-42.7c0.5-11.4,3.2-23.5,11.5-31.8c8.5-8.5,20.2-11,31.8-11.5
			C168.4,113.5,171.8,113.4,200,113.4 M200,94.4c-28.7,0-32.3,0.1-43.6,0.6c-16.3,0.7-32.5,5.3-44.4,17.1
			c-11.8,11.8-16.3,28-17.1,44.4c-0.5,11.3-0.6,14.9-0.6,43.6s0.1,32.3,0.6,43.6c0.7,16.3,5.3,32.6,17.1,44.4
			c11.8,11.8,28,16.3,44.4,17.1c11.3,0.5,14.9,0.6,43.6,0.6s32.3-0.1,43.6-0.6c16.3-0.7,32.6-5.3,44.4-17.1
			c11.9-11.9,16.3-28,17.1-44.4c0.5-11.3,0.6-14.9,0.6-43.6s-0.1-32.3-0.6-43.6c-0.7-16.3-5.3-32.6-17.1-44.4
			c-11.8-11.8-28.1-16.4-44.4-17.1C232.3,94.5,228.7,94.4,200,94.4z"/>
		<path class="st1" d="M200,145.8c-30,0-54.2,24.3-54.2,54.2s24.3,54.2,54.2,54.2s54.2-24.3,54.2-54.2S230,145.8,200,145.8z
			 M200,235.2c-19.4,0-35.2-15.8-35.2-35.2s15.8-35.2,35.2-35.2s35.2,15.8,35.2,35.2S219.4,235.2,200,235.2z"/>
		<circle class="st1" cx="256.4" cy="143.6" r="12.7"/>
	</g>
</g>
</svg>
